<svg width="52" height="52" viewBox="0 0 52 52" fill="none" xmlns="http://www.w3.org/2000/svg">
<circle cx="26" cy="26" r="26" fill="#80CCE3"/>
<path d="M21.72 30.4558L23.481 29.9478L34.084 19.2178C34.1676 19.1321 34.2142 19.017 34.2136 18.8972C34.2131 18.7775 34.1654 18.6628 34.081 18.5778L33.446 17.9358C33.405 17.8937 33.3559 17.8601 33.3018 17.8371C33.2477 17.8141 33.1895 17.8021 33.1306 17.8018C33.0718 17.8015 33.0135 17.813 32.9591 17.8355C32.9048 17.858 32.8554 17.8911 32.814 17.9328L22.239 28.6348L21.719 30.4548L21.72 30.4558ZM34.703 16.6638L35.338 17.3068C36.214 18.1938 36.222 19.6248 35.354 20.5028L24.428 31.5608L20.664 32.6448C20.4342 32.7092 20.1883 32.6797 19.9802 32.5629C19.7721 32.4461 19.6188 32.2515 19.554 32.0218C19.5058 31.8567 19.5051 31.6813 19.552 31.5158L20.647 27.6758L31.544 16.6468C31.7512 16.4382 31.9979 16.2729 32.2696 16.1606C32.5414 16.0483 32.8328 15.9912 33.1269 15.9927C33.4209 15.9942 33.7117 16.0542 33.9823 16.1693C34.2529 16.2843 34.4979 16.4521 34.703 16.6628V16.6638ZM23.184 17.8168C23.68 17.8168 24.082 18.2238 24.082 18.7258C24.0828 18.8445 24.0602 18.9622 24.0155 19.0721C23.9708 19.182 23.9048 19.2821 23.8214 19.3665C23.738 19.4509 23.6388 19.5181 23.5294 19.5641C23.42 19.6102 23.3027 19.6342 23.184 19.6348H19.592C18.6 19.6348 17.796 20.4488 17.796 21.4518V32.3578C17.796 33.3618 18.6 34.1758 19.592 34.1758H30.368C31.36 34.1758 32.165 33.3618 32.165 32.3578V28.7228C32.165 28.2208 32.567 27.8138 33.063 27.8138C33.559 27.8138 33.961 28.2208 33.961 28.7238V32.3578C33.961 34.3658 32.352 35.9938 30.368 35.9938H19.592C17.608 35.9938 16 34.3658 16 32.3578V21.4518C16 19.4448 17.608 17.8168 19.592 17.8168H23.184Z" fill="white"/>
</svg>
