<svg width="36" height="36" viewBox="0 0 36 36" fill="none" xmlns="http://www.w3.org/2000/svg">
<g clip-path="url(#clip0_273_2631)">
<path d="M30.3851 29.0001C30.5578 29.1859 30.6517 29.4315 30.647 29.6851C30.6424 29.9388 30.5395 30.1808 30.3601 30.3601C30.1808 30.5395 29.9388 30.6424 29.6851 30.647C29.4315 30.6517 29.1859 30.5578 29.0001 30.3851L15.5001 16.8841C15.3247 16.6989 15.2285 16.4526 15.232 16.1976C15.2355 15.9426 15.3383 15.699 15.5187 15.5187C15.699 15.3383 15.9426 15.2355 16.1976 15.232C16.4526 15.2285 16.6989 15.3247 16.8841 15.5001L30.3851 29.0001Z" fill="#55ACEE"/>
<path d="M35.561 33.439C35.7042 33.5774 35.8185 33.7429 35.8971 33.9259C35.9757 34.1089 36.0171 34.3057 36.0189 34.5049C36.0206 34.7041 35.9826 34.9016 35.9072 35.0859C35.8318 35.2703 35.7204 35.4378 35.5796 35.5786C35.4387 35.7194 35.2713 35.8308 35.0869 35.9062C34.9026 35.9817 34.705 36.0196 34.5059 36.0179C34.3067 36.0161 34.1099 35.9748 33.9269 35.8962C33.7439 35.8175 33.5784 35.7033 33.44 35.56L27.784 29.904C27.6407 29.7656 27.5264 29.6001 27.4478 29.4171C27.3692 29.2341 27.3278 29.0373 27.3261 28.8381C27.3244 28.6389 27.3623 28.4414 27.4377 28.2571C27.5132 28.0727 27.6246 27.9053 27.7654 27.7644C27.9062 27.6236 28.0737 27.5122 28.2581 27.4368C28.4424 27.3614 28.6399 27.3234 28.8391 27.3251C29.0383 27.3269 29.2351 27.3682 29.4181 27.4469C29.6011 27.5255 29.7666 27.6397 29.905 27.783L35.561 33.439Z" fill="#292F33"/>
<path d="M2.44702 5.20009L3.15402 4.49309L15.178 16.5101L14.471 17.2171L2.44702 5.20009ZM3.86402 2.37009L4.57102 1.66309L17.299 14.3911L16.591 15.0981L3.86402 2.37009Z" fill="#99AAB5"/>
<path d="M1.03503 9.44105L9.52003 0.956055L10.227 1.66305L1.74203 10.1481L1.03503 9.44105ZM1.74203 12.9761L12.35 2.37005L13.057 3.07705L2.44903 13.6841L1.74203 12.9761ZM3.86403 15.0981L15.177 3.78505L15.884 4.49205L4.57103 15.8051L3.86403 15.0981ZM6.69203 16.5131L16.591 6.61305L17.298 7.32006L7.39803 17.2201L6.69203 16.5131ZM9.52003 17.9261L18.005 9.44105L18.712 10.1481L10.227 18.6341L9.52003 17.9261Z" fill="#99AAB5"/>
<path d="M1.03503 8.02706L1.74203 7.32006L12.35 17.9261L11.643 18.6331L1.03503 8.02706ZM7.40003 1.66305L8.10603 0.956055L18.713 11.5621L18.006 12.2701L7.40003 1.66305Z" fill="#99AAB5"/>
<path d="M2.46806 2.46796C-1.00294 5.93996 -0.650942 11.92 3.25406 15.825C7.16006 19.731 13.1391 20.082 16.6101 16.611C20.0821 13.139 19.7311 7.16096 15.8241 3.25496C11.9191 -0.65104 5.94006 -1.00304 2.46806 2.46796ZM15.3141 15.314C12.5811 18.047 7.77906 17.678 4.58906 14.489C1.40006 11.3 1.03206 6.49896 3.76506 3.76496C6.49906 1.03096 11.3001 1.40096 14.4891 4.58996C17.6781 7.77896 18.0481 12.581 15.3141 15.314Z" fill="#55ACEE"/>
<path d="M17.298 14.3909C17.4855 14.5785 17.5908 14.8328 17.5908 15.0979C17.5908 15.3631 17.4855 15.6174 17.298 15.8049L15.883 17.2199C15.7901 17.3128 15.6798 17.3864 15.5584 17.4366C15.4371 17.4869 15.307 17.5127 15.1756 17.5126C15.0443 17.5126 14.9142 17.4867 14.7929 17.4364C14.6716 17.3861 14.5613 17.3124 14.4685 17.2194C14.3756 17.1265 14.302 17.0162 14.2518 16.8949C14.2016 16.7735 14.1757 16.6434 14.1758 16.5121C14.1759 16.2468 14.2813 15.9925 14.469 15.8049L15.883 14.3909C15.9759 14.298 16.0861 14.2242 16.2075 14.1739C16.3289 14.1236 16.4591 14.0977 16.5905 14.0977C16.7219 14.0977 16.852 14.1236 16.9734 14.1739C17.0948 14.2242 17.2051 14.298 17.298 14.3909Z" fill="#226699"/>
<path d="M18.005 16.5119C18.0979 16.6047 18.1716 16.715 18.2219 16.8363C18.2722 16.9576 18.2982 17.0877 18.2982 17.219C18.2982 17.3504 18.2724 17.4805 18.2222 17.6018C18.172 17.7232 18.0983 17.8335 18.0055 17.9264C17.9127 18.0193 17.8024 18.093 17.6811 18.1433C17.5597 18.1936 17.4297 18.2195 17.2983 18.2196C17.167 18.2196 17.0369 18.1938 16.9156 18.1436C16.7942 18.0934 16.6839 18.0197 16.591 17.9269L15.884 17.2199C15.7055 17.0304 15.6078 16.7789 15.6117 16.5186C15.6156 16.2583 15.7207 16.0097 15.9048 15.8257C16.0888 15.6416 16.3374 15.5365 16.5977 15.5326C16.858 15.5287 17.1095 15.6264 17.299 15.8049L18.005 16.5119Z" fill="#226699"/>
<path d="M29.56 27.44C30.146 28.025 29.438 28.268 28.853 28.854C28.267 29.439 28.024 30.146 27.439 29.561C27.2957 29.4226 27.1815 29.2571 27.1029 29.0741C27.0242 28.8911 26.9829 28.6943 26.9811 28.4951C26.9794 28.2959 27.0174 28.0984 27.0928 27.9141C27.1682 27.7297 27.2796 27.5622 27.4204 27.4214C27.5613 27.2806 27.7287 27.1692 27.9131 27.0938C28.0974 27.0183 28.2949 26.9804 28.4941 26.9821C28.6933 26.9838 28.8901 27.0252 29.0731 27.1038C29.2561 27.1824 29.4216 27.2967 29.56 27.44Z" fill="#226699"/>
<path d="M21.8099 3.18201C21.435 3.55706 21.2244 4.06568 21.2244 4.59601C21.2244 5.12634 21.435 5.63495 21.8099 6.01001L22.5169 6.71701L23.2239 6.01001L24.6379 4.59601L25.3469 3.88901L24.6379 3.18201C24.2629 2.80707 23.7543 2.59644 23.2239 2.59644C22.6936 2.59644 22.185 2.80707 21.8099 3.18201Z" fill="#BE1931"/>
<path d="M22.52 6.71594L25.35 3.88794L26.057 4.59494L23.227 7.42394L22.52 6.71594Z" fill="#99AAB5"/>
<path d="M23.225 7.42395L26.055 4.59595C27.528 5.08395 35.18 9.66495 34.916 9.92995C34.158 10.6889 33.004 10.1309 33.004 10.1309C33.004 10.1309 33.848 10.9369 33.121 11.6629C32.394 12.3889 31.59 11.5449 31.59 11.5449C31.59 11.5449 32.559 12.2859 31.739 13.1089C30.913 13.9349 30.177 12.9599 30.177 12.9599C30.177 12.9599 30.906 13.9409 30.275 14.5729C29.642 15.2039 28.761 14.3739 28.761 14.3739C28.761 14.3739 29.179 15.3719 28.419 16.1299C28.057 16.4939 23.81 8.79995 23.225 7.42395Z" fill="#E1E8ED"/>
<path d="M26.414 7.82297C26.992 7.13997 31.846 11.55 30.994 12.402C30.141 13.253 25.719 8.64297 26.414 7.82297ZM28.119 15.271C28.799 14.828 25.047 9.45497 24.584 9.84397C24.553 9.86997 24.539 9.91597 24.531 9.96997C25.414 11.596 26.537 13.564 27.355 14.837C27.691 15.179 27.971 15.367 28.119 15.271ZM28.391 6.03797C28 6.49997 33.375 10.252 33.818 9.57297C33.933 9.39497 33.648 9.03197 33.162 8.60297C31.7574 7.70698 30.3286 6.84966 28.877 6.03197C28.637 5.96697 28.459 5.95797 28.391 6.03797ZM25.402 8.89697C25.828 8.46797 30.043 13.486 29.404 13.99C28.766 14.49 24.889 9.41397 25.402 8.89697ZM27.443 6.85597C27.015 7.28197 32.033 11.496 32.535 10.858C33.037 10.219 27.961 6.34197 27.443 6.85597Z" fill="#CCD6DD"/>
</g>
<defs>
<clipPath id="clip0_273_2631">
<rect width="36" height="36" fill="white"/>
</clipPath>
</defs>
</svg>
