<svg width="36" height="36" viewBox="0 0 36 36" fill="none" xmlns="http://www.w3.org/2000/svg">
<g clip-path="url(#clip0_273_2634)">
<path d="M18 36C27.9411 36 36 27.9411 36 18C36 8.05887 27.9411 0 18 0C8.05887 0 0 8.05887 0 18C0 27.9411 8.05887 36 18 36Z" fill="#F5F8FA"/>
<path d="M18 11C17.7348 11 17.4804 10.8947 17.2929 10.7071C17.1053 10.5196 17 10.2653 17 10V3.00003C17 2.73482 17.1053 2.48046 17.2929 2.29293C17.4804 2.10539 17.7348 2.00003 18 2.00003C18.2652 2.00003 18.5196 2.10539 18.7071 2.29293C18.8946 2.48046 19 2.73482 19 3.00003V10C19 10.2653 18.8946 10.5196 18.7071 10.7071C18.5196 10.8947 18.2652 11 18 11ZM11.417 15.5C11.3145 15.5001 11.2126 15.4842 11.115 15.453L3.07398 12.911C2.8211 12.8311 2.61034 12.6539 2.48806 12.4186C2.36579 12.1832 2.34202 11.9089 2.42198 11.656C2.50194 11.4032 2.67909 11.1924 2.91445 11.0701C3.14981 10.9478 3.4241 10.9241 3.67698 11.004L11.719 13.546C11.9471 13.6177 12.142 13.7688 12.2683 13.9718C12.3946 14.1749 12.444 14.4165 12.4074 14.6528C12.3709 14.8891 12.2509 15.1045 12.0692 15.2599C11.8875 15.4154 11.6561 15.5006 11.417 15.5ZM25.042 15.209C24.8018 15.2077 24.5701 15.1201 24.3891 14.9621C24.2082 14.8041 24.0901 14.5864 24.0564 14.3486C24.0227 14.1107 24.0756 13.8687 24.2055 13.6667C24.3354 13.4647 24.5336 13.3161 24.764 13.248L31.514 11.29C31.7676 11.2201 32.0385 11.2528 32.2681 11.3812C32.4977 11.5096 32.6674 11.7233 32.7406 11.976C32.8137 12.2287 32.7843 12.5 32.6588 12.7312C32.5333 12.9623 32.3217 13.1348 32.07 13.211L25.32 15.169C25.2297 15.1955 25.1361 15.209 25.042 15.209ZM27.043 30.167C26.887 30.1672 26.7331 30.1308 26.5937 30.0608C26.4542 29.9908 26.3331 29.8892 26.24 29.764L20.781 22.431C20.6995 22.3259 20.6398 22.2057 20.6053 22.0772C20.5709 21.9488 20.5624 21.8148 20.5804 21.683C20.5984 21.5513 20.6425 21.4244 20.7101 21.3099C20.7777 21.1954 20.8675 21.0955 20.9741 21.0161C21.0808 20.9367 21.2022 20.8794 21.3313 20.8475C21.4604 20.8156 21.5946 20.8097 21.7259 20.8303C21.8573 20.8509 21.9833 20.8974 22.0964 20.9673C22.2096 21.0371 22.3077 21.1288 22.385 21.237L27.844 28.57C27.9546 28.7187 28.0217 28.8951 28.0379 29.0797C28.0541 29.2643 28.0187 29.4497 27.9356 29.6154C27.8525 29.781 27.7251 29.9203 27.5675 30.0177C27.4099 30.1151 27.2283 30.1668 27.043 30.167ZM8.74898 30.084C8.56639 30.0839 8.38733 30.0337 8.23122 29.939C8.07511 29.8443 7.94792 29.7086 7.86343 29.5468C7.77894 29.3849 7.74038 29.203 7.75194 29.0207C7.76349 28.8385 7.82472 28.6629 7.92898 28.513L13.054 21.138C13.1275 21.027 13.2225 20.9318 13.3334 20.858C13.4443 20.7842 13.5687 20.7333 13.6996 20.7082C13.8304 20.6832 13.9649 20.6845 14.0951 20.7122C14.2254 20.7398 14.3489 20.7932 14.4582 20.8692C14.5676 20.9452 14.6607 21.0423 14.732 21.1547C14.8034 21.2672 14.8515 21.3928 14.8737 21.5241C14.8958 21.6554 14.8915 21.7899 14.861 21.9195C14.8305 22.0491 14.7744 22.1714 14.696 22.279L9.57098 29.654C9.47914 29.787 9.35631 29.8957 9.2131 29.9706C9.06989 30.0455 8.9106 30.0844 8.74898 30.084ZM3.49998 27.062C3.05998 27.062 2.65598 26.769 2.53498 26.324L0.346981 18.262C0.31264 18.1352 0.303609 18.0029 0.320404 17.8726C0.337198 17.7424 0.379489 17.6167 0.444861 17.5027C0.510233 17.3888 0.597407 17.2888 0.701406 17.2086C0.805404 17.1284 0.92419 17.0694 1.05098 17.035C1.17777 17.0007 1.31009 16.9917 1.44037 17.0085C1.57065 17.0253 1.69635 17.0675 1.81028 17.1329C1.92422 17.1983 2.02417 17.2855 2.10442 17.3895C2.18466 17.4935 2.24364 17.6122 2.27798 17.739L4.46598 25.801C4.5065 25.9494 4.5122 26.1051 4.48263 26.256C4.45306 26.4069 4.38902 26.5489 4.29551 26.671C4.202 26.793 4.08155 26.8918 3.94355 26.9597C3.80555 27.0275 3.65375 27.0625 3.49998 27.062ZM22 34H13C12.7348 34 12.4804 33.8947 12.2929 33.7071C12.1053 33.5196 12 33.2653 12 33C12 32.7348 12.1053 32.4805 12.2929 32.2929C12.4804 32.1054 12.7348 32 13 32H22C22.2652 32 22.5196 32.1054 22.7071 32.2929C22.8946 32.4805 23 32.7348 23 33C23 33.2653 22.8946 33.5196 22.7071 33.7071C22.5196 33.8947 22.2652 34 22 34ZM32.126 27.125C31.9743 27.1252 31.8245 27.0909 31.688 27.0245C31.5516 26.9582 31.432 26.8617 31.3384 26.7423C31.2448 26.6228 31.1797 26.4837 31.1479 26.3353C31.1161 26.187 31.1185 26.0333 31.155 25.886L33.28 17.261C33.3084 17.1304 33.3627 17.0069 33.4397 16.8976C33.5167 16.7883 33.6148 16.6956 33.7282 16.6249C33.8416 16.5542 33.9681 16.507 34.1001 16.486C34.2321 16.465 34.367 16.4707 34.4967 16.5027C34.6265 16.5348 34.7485 16.5925 34.8556 16.6725C34.9627 16.7524 35.0526 16.8531 35.1201 16.9684C35.1877 17.0838 35.2314 17.2115 35.2487 17.344C35.266 17.4766 35.2566 17.6112 35.221 17.74L33.096 26.365C32.983 26.82 32.575 27.125 32.126 27.125ZM30.312 7.68804C30.1364 7.68812 29.964 7.6419 29.812 7.55403L22.25 3.17903C22.1363 3.11321 22.0367 3.02562 21.9569 2.92128C21.877 2.81695 21.8186 2.6979 21.7847 2.57095C21.7509 2.44401 21.7425 2.31164 21.7599 2.18142C21.7772 2.0512 21.8201 1.92568 21.886 1.81203C21.9515 1.6982 22.0389 1.59843 22.1431 1.51844C22.2473 1.43845 22.3663 1.37982 22.4932 1.34591C22.6201 1.312 22.7525 1.30347 22.8827 1.32083C23.0129 1.33818 23.1384 1.38107 23.252 1.44703L30.814 5.82203C31.0048 5.93219 31.1538 6.10227 31.238 6.30584C31.3222 6.50941 31.3368 6.73509 31.2796 6.94782C31.2224 7.16056 31.0965 7.34844 30.9215 7.48229C30.7466 7.61614 30.5323 7.68847 30.312 7.68804ZM5.50098 7.68804C5.28907 7.6884 5.08252 7.62144 4.91113 7.49682C4.73975 7.37219 4.61238 7.19634 4.54741 6.99464C4.48243 6.79294 4.48322 6.57581 4.54964 6.37458C4.61607 6.17335 4.7447 5.99842 4.91698 5.87503L11.105 1.43703C11.3209 1.29381 11.5839 1.23985 11.8387 1.28652C12.0935 1.33318 12.3203 1.47682 12.4714 1.68725C12.6226 1.89767 12.6862 2.15849 12.649 2.41487C12.6118 2.67126 12.4767 2.90323 12.272 3.06203L6.08298 7.50003C5.91338 7.62195 5.70985 7.68769 5.50098 7.68804Z" fill="#CCD6DD"/>
<path d="M25.493 13.516L18.285 8.433C18.1148 8.31335 17.9116 8.24964 17.7035 8.25071C17.4955 8.25179 17.2929 8.31759 17.124 8.439L9.957 13.606C9.78946 13.7268 9.66346 13.8966 9.59631 14.092C9.52917 14.2873 9.52416 14.4987 9.582 14.697L12.082 23.28C12.1426 23.4877 12.2689 23.6702 12.442 23.8C12.6151 23.9298 12.8256 24 13.042 24H22C22.2094 24.0001 22.4136 23.9344 22.5837 23.8122C22.7538 23.69 22.8812 23.5175 22.948 23.319L25.865 14.652C25.9336 14.4478 25.9344 14.227 25.8674 14.0223C25.8004 13.8176 25.6691 13.64 25.493 13.516V13.516ZM1.292 19.542C1.46954 19.542 1.64388 19.4948 1.79713 19.4052C1.95038 19.3156 2.07701 19.1868 2.164 19.032L5.539 13.032C5.58993 12.9412 5.62637 12.843 5.647 12.741L6.98 6.2C7.00985 6.05467 7.00696 5.90452 6.97153 5.76045C6.9361 5.61638 6.86903 5.48201 6.77519 5.3671C6.68134 5.25219 6.56308 5.15962 6.429 5.09612C6.29491 5.03262 6.14836 4.99979 6 5H5.572C2.145 8.277 0 12.884 0 18C0 18.266 0.028 18.525 0.04 18.788L0.642 19.302C0.824 19.458 1.055 19.542 1.292 19.542V19.542ZM10.617 2.995C10.6694 3.103 10.7469 3.19682 10.8432 3.26853C10.9394 3.34024 11.0515 3.38773 11.17 3.407L17.545 4.449C17.6256 4.46102 17.7074 4.46102 17.788 4.449L23.872 3.449C23.9716 3.43286 24.0669 3.39674 24.1521 3.34283C24.2374 3.28891 24.3109 3.2183 24.3681 3.13525C24.4254 3.0522 24.4653 2.95843 24.4853 2.85957C24.5054 2.76071 24.5053 2.65881 24.485 2.56L24.193 1.117C22.2108 0.382117 20.1141 0.00394881 18 0C15.575 0 13.266 0.486 11.155 1.356L10.634 2.306C10.5764 2.41117 10.5449 2.52858 10.5419 2.64844C10.539 2.76829 10.5647 2.88712 10.617 2.995V2.995ZM31.134 5.719L29.63 5.624C29.5163 5.61708 29.4025 5.63587 29.2971 5.67898C29.1916 5.72209 29.0973 5.7884 29.021 5.873C28.9456 5.95763 28.8906 6.05843 28.8603 6.16765C28.8299 6.27687 28.825 6.3916 28.846 6.503L30.013 12.701C30.03 12.7807 30.0616 12.8567 30.106 12.925C31.598 15.429 33.258 18.226 33.487 18.707C33.511 18.791 33.549 18.786 33.601 18.858C33.741 19.053 33.973 19 34.213 19H34.22C34.418 19 34.543 19.094 35.988 18.247C35.989 18.164 36 18.083 36 18C36 13.247 34.144 8.936 31.134 5.719V5.719ZM14.541 33.376C14.5518 33.1765 14.4831 32.9809 14.35 32.832L9.85 27.832C9.79003 27.7654 9.71855 27.7102 9.639 27.669C3.754 24.6 3.645 24.564 3.573 24.539C3.49482 24.5136 3.41319 24.5005 3.331 24.5C2.794 24.5 2.636 24.565 2.146 26.524C4.40641 30.716 8.23248 33.8444 12.79 35.227L14.29 33.894C14.439 33.7614 14.5292 33.5751 14.541 33.376V33.376ZM32.374 24.809C32.2802 24.7694 32.1793 24.7495 32.0775 24.7503C31.9757 24.7512 31.8751 24.7729 31.782 24.814L25.699 27.481C25.5929 27.5269 25.499 27.5971 25.425 27.686L21.175 32.769C21.1115 32.8452 21.0638 32.9331 21.0345 33.0278C21.0051 33.1225 20.9948 33.2221 21.0041 33.3208C21.0134 33.4195 21.0421 33.5154 21.0886 33.6029C21.1351 33.6905 21.1984 33.768 21.275 33.831C21.958 34.39 22.536 34.861 23.042 35.271C27.4351 33.9825 31.1728 31.0699 33.496 27.125L32.784 25.236C32.7483 25.1407 32.6935 25.0537 32.623 24.9803C32.5525 24.9069 32.4678 24.8486 32.374 24.809V24.809Z" fill="#31373D"/>
</g>
<defs>
<clipPath id="clip0_273_2634">
<rect width="36" height="36" fill="white"/>
</clipPath>
</defs>
</svg>
